<mxfile host="Electron" modified="2023-05-10T12:08:59.456Z" agent="Mozilla/5.0 (Windows NT 10.0; Win64; x64) AppleWebKit/537.36 (KHTML, like Gecko) draw.io/21.2.8 Chrome/112.0.5615.165 Electron/24.2.0 Safari/537.36" etag="UFtIQCDQJ-Ml9ED40lBr" version="21.2.8" type="device">
  <diagram id="aW8BC6xyf7XYzy20FpQa" name="Page-1">
    <mxGraphModel dx="699" dy="426" grid="1" gridSize="10" guides="1" tooltips="1" connect="1" arrows="1" fold="1" page="1" pageScale="1" pageWidth="827" pageHeight="1169" math="0" shadow="0">
      <root>
        <mxCell id="0" />
        <mxCell id="1" parent="0" />
        <mxCell id="XK2W6UIJSNf5Aq3qvfiF-6" value="" style="whiteSpace=wrap;html=1;shape=mxgraph.basic.cloud_rect;gradientColor=none;strokeColor=#A6A6A6;shadow=1;strokeWidth=1;perimeterSpacing=0;sketch=0;dashed=1;" parent="1" vertex="1">
          <mxGeometry x="267" y="328" width="457" height="133" as="geometry" />
        </mxCell>
        <mxCell id="_izc5aic09UUB3uyZORW-22" value="&lt;font style=&quot;font-size: 10px;&quot;&gt;Machine 9&lt;/font&gt;" style="text;html=1;strokeColor=none;fillColor=none;align=center;verticalAlign=middle;whiteSpace=wrap;rounded=0;fontSize=10;" parent="1" vertex="1">
          <mxGeometry x="579" y="305" width="60" height="30" as="geometry" />
        </mxCell>
        <mxCell id="_izc5aic09UUB3uyZORW-28" value="" style="rounded=0;whiteSpace=wrap;html=1;fillColor=#D5E8D4;" parent="1" vertex="1">
          <mxGeometry x="279" y="337" width="213" height="116" as="geometry" />
        </mxCell>
        <mxCell id="_izc5aic09UUB3uyZORW-29" value="cgroups Controller" style="rounded=1;whiteSpace=wrap;html=1;fillColor=#CCCCCC;strokeColor=#000000;fontSize=11;" parent="1" vertex="1">
          <mxGeometry x="289" y="378" width="194" height="20" as="geometry" />
        </mxCell>
        <mxCell id="_izc5aic09UUB3uyZORW-30" value="" style="endArrow=none;dashed=1;html=1;rounded=0;fontColor=#000000;shape=link;sketch=0;width=0;endSize=29;" parent="1" edge="1">
          <mxGeometry width="50" height="50" relative="1" as="geometry">
            <mxPoint x="487" y="401" as="sourcePoint" />
            <mxPoint x="285" y="401" as="targetPoint" />
          </mxGeometry>
        </mxCell>
        <mxCell id="_izc5aic09UUB3uyZORW-31" value="" style="html=1;shadow=0;dashed=0;align=center;verticalAlign=middle;shape=mxgraph.arrows2.twoWayArrow;dy=0.8;dx=1.0;fontColor=#ffffff;strokeColor=#432D57;fillColor=#76608a;direction=south;" parent="1" vertex="1">
          <mxGeometry x="384" y="404" width="5" height="7" as="geometry" />
        </mxCell>
        <mxCell id="_izc5aic09UUB3uyZORW-32" value="" style="rounded=0;whiteSpace=wrap;html=1;shadow=0;labelBackgroundColor=none;fontSize=10;fontColor=#000000;strokeColor=#000000;fillColor=#FFFFFF;" parent="1" vertex="1">
          <mxGeometry x="287" y="342" width="46" height="27" as="geometry" />
        </mxCell>
        <mxCell id="_izc5aic09UUB3uyZORW-33" value="" style="rounded=0;whiteSpace=wrap;html=1;shadow=0;fontSize=10;strokeColor=#FFFFFF;fillColor=#fad9d5;imageWidth=21;imageHeight=21;absoluteArcSize=1;" parent="1" vertex="1">
          <mxGeometry x="288" y="343" width="15" height="24" as="geometry" />
        </mxCell>
        <mxCell id="_izc5aic09UUB3uyZORW-34" value="" style="rounded=0;whiteSpace=wrap;html=1;shadow=0;fontSize=10;strokeColor=#FFFFFF;fillColor=#fad9d5;imageWidth=21;imageHeight=21;absoluteArcSize=1;" parent="1" vertex="1">
          <mxGeometry x="302" y="343" width="15" height="24" as="geometry" />
        </mxCell>
        <mxCell id="_izc5aic09UUB3uyZORW-35" value="" style="rounded=0;whiteSpace=wrap;html=1;shadow=0;fontSize=10;fontColor=#000000;strokeColor=#FFFFFF;fillColor=#CCCCCC;imageWidth=21;imageHeight=21;absoluteArcSize=1;" parent="1" vertex="1">
          <mxGeometry x="317" y="343" width="15" height="24" as="geometry" />
        </mxCell>
        <mxCell id="_izc5aic09UUB3uyZORW-36" value="CPU" style="text;html=1;strokeColor=none;fillColor=none;align=center;verticalAlign=middle;whiteSpace=wrap;rounded=0;fontSize=10;" parent="1" vertex="1">
          <mxGeometry x="283" y="343" width="54" height="24" as="geometry" />
        </mxCell>
        <mxCell id="_izc5aic09UUB3uyZORW-37" value="" style="rounded=0;whiteSpace=wrap;html=1;shadow=0;labelBackgroundColor=none;fontSize=10;fontColor=#000000;strokeColor=#000000;fillColor=#FFFFFF;" parent="1" vertex="1">
          <mxGeometry x="338" y="342" width="46" height="27" as="geometry" />
        </mxCell>
        <mxCell id="_izc5aic09UUB3uyZORW-38" value="" style="rounded=0;whiteSpace=wrap;html=1;shadow=0;fontSize=10;strokeColor=#FFFFFF;fillColor=#fad9d5;imageWidth=21;imageHeight=21;absoluteArcSize=1;" parent="1" vertex="1">
          <mxGeometry x="339" y="343" width="15" height="24" as="geometry" />
        </mxCell>
        <mxCell id="_izc5aic09UUB3uyZORW-39" value="" style="rounded=0;whiteSpace=wrap;html=1;shadow=0;fontSize=10;strokeColor=#FFFFFF;fillColor=#fad9d5;imageWidth=21;imageHeight=21;absoluteArcSize=1;" parent="1" vertex="1">
          <mxGeometry x="353" y="343" width="15" height="24" as="geometry" />
        </mxCell>
        <mxCell id="_izc5aic09UUB3uyZORW-40" value="" style="rounded=0;whiteSpace=wrap;html=1;shadow=0;fontSize=10;fontColor=#000000;strokeColor=#FFFFFF;fillColor=#CCCCCC;imageWidth=21;imageHeight=21;absoluteArcSize=1;" parent="1" vertex="1">
          <mxGeometry x="368" y="343" width="15" height="24" as="geometry" />
        </mxCell>
        <mxCell id="_izc5aic09UUB3uyZORW-41" value="Disk" style="text;html=1;strokeColor=none;fillColor=none;align=center;verticalAlign=middle;whiteSpace=wrap;rounded=0;fontSize=10;" parent="1" vertex="1">
          <mxGeometry x="334" y="343" width="54" height="24" as="geometry" />
        </mxCell>
        <mxCell id="_izc5aic09UUB3uyZORW-42" value="" style="rounded=0;whiteSpace=wrap;html=1;shadow=0;labelBackgroundColor=none;fontSize=10;fontColor=#000000;strokeColor=#000000;fillColor=#FFFFFF;" parent="1" vertex="1">
          <mxGeometry x="389" y="342" width="46" height="27" as="geometry" />
        </mxCell>
        <mxCell id="_izc5aic09UUB3uyZORW-43" value="" style="rounded=0;whiteSpace=wrap;html=1;shadow=0;fontSize=10;strokeColor=#FFFFFF;fillColor=#fad9d5;imageWidth=21;imageHeight=21;absoluteArcSize=1;" parent="1" vertex="1">
          <mxGeometry x="390" y="343" width="15" height="24" as="geometry" />
        </mxCell>
        <mxCell id="_izc5aic09UUB3uyZORW-44" value="" style="rounded=0;whiteSpace=wrap;html=1;shadow=0;fontSize=10;strokeColor=#FFFFFF;fillColor=#fad9d5;imageWidth=21;imageHeight=21;absoluteArcSize=1;" parent="1" vertex="1">
          <mxGeometry x="404" y="343" width="15" height="24" as="geometry" />
        </mxCell>
        <mxCell id="_izc5aic09UUB3uyZORW-45" value="" style="rounded=0;whiteSpace=wrap;html=1;shadow=0;fontSize=10;fontColor=#000000;strokeColor=#FFFFFF;fillColor=#CCCCCC;imageWidth=21;imageHeight=21;absoluteArcSize=1;" parent="1" vertex="1">
          <mxGeometry x="419" y="343" width="15" height="24" as="geometry" />
        </mxCell>
        <mxCell id="_izc5aic09UUB3uyZORW-46" value="Network" style="text;html=1;strokeColor=none;fillColor=none;align=center;verticalAlign=middle;whiteSpace=wrap;rounded=0;fontSize=10;" parent="1" vertex="1">
          <mxGeometry x="385" y="343" width="54" height="24" as="geometry" />
        </mxCell>
        <mxCell id="_izc5aic09UUB3uyZORW-47" value="&lt;font style=&quot;font-size: 10px;&quot;&gt;Peer1&lt;br style=&quot;&quot;&gt;Container&lt;/font&gt;" style="shape=cube;whiteSpace=wrap;html=1;boundedLbl=1;backgroundOutline=1;darkOpacity=0.05;darkOpacity2=0.1;shadow=0;size=3;fontSize=11;fillColor=#fad9d5;strokeColor=#ae4132;" parent="1" vertex="1">
          <mxGeometry x="351" y="414" width="70" height="34" as="geometry" />
        </mxCell>
        <mxCell id="_izc5aic09UUB3uyZORW-48" value="&lt;font style=&quot;font-size: 10px;&quot;&gt;Machine 8&lt;/font&gt;" style="text;html=1;strokeColor=none;fillColor=none;align=center;verticalAlign=middle;whiteSpace=wrap;rounded=0;fontSize=10;" parent="1" vertex="1">
          <mxGeometry x="357" y="306" width="60" height="30" as="geometry" />
        </mxCell>
        <mxCell id="_izc5aic09UUB3uyZORW-52" value="&lt;font style=&quot;font-size: 10px;&quot;&gt;Hyperledger&amp;nbsp;Fabric &lt;br&gt;Service Side&lt;br&gt;&lt;/font&gt;" style="text;html=1;strokeColor=none;fillColor=none;align=center;verticalAlign=middle;whiteSpace=wrap;rounded=0;fontSize=8;" parent="1" vertex="1">
          <mxGeometry x="368" y="262" width="260" height="30" as="geometry" />
        </mxCell>
        <mxCell id="_izc5aic09UUB3uyZORW-53" value="" style="rounded=0;whiteSpace=wrap;html=1;fillColor=#F0F0F0;strokeColor=#36393d;" parent="1" vertex="1">
          <mxGeometry x="462" y="487" width="130" height="82" as="geometry" />
        </mxCell>
        <mxCell id="_izc5aic09UUB3uyZORW-54" value="Nodejs SDK" style="rounded=1;whiteSpace=wrap;html=1;fontSize=11;fillColor=#CCCCCC;strokeColor=#000000;" parent="1" vertex="1">
          <mxGeometry x="468" y="543" width="114" height="20" as="geometry" />
        </mxCell>
        <mxCell id="_izc5aic09UUB3uyZORW-55" value="" style="endArrow=none;dashed=1;html=1;rounded=0;fontColor=#000000;shape=link;sketch=0;width=0;" parent="1" edge="1">
          <mxGeometry width="50" height="50" relative="1" as="geometry">
            <mxPoint x="583" y="537.9999999999997" as="sourcePoint" />
            <mxPoint x="467.9999999999999" y="537.9999999999997" as="targetPoint" />
          </mxGeometry>
        </mxCell>
        <mxCell id="_izc5aic09UUB3uyZORW-56" value="" style="html=1;shadow=0;dashed=0;align=center;verticalAlign=middle;shape=mxgraph.arrows2.twoWayArrow;dy=0.8;dx=1.0;fontColor=#ffffff;strokeColor=#432D57;fillColor=#76608a;direction=south;" parent="1" vertex="1">
          <mxGeometry x="526" y="526" width="6" height="10" as="geometry" />
        </mxCell>
        <mxCell id="_izc5aic09UUB3uyZORW-57" value="&lt;font style=&quot;font-size: 10px;&quot;&gt;Peer1.Client7&lt;/font&gt;" style="shape=document;whiteSpace=wrap;html=1;boundedLbl=1;fillColor=#fad9d5;strokeColor=#ae4132;" parent="1" vertex="1">
          <mxGeometry x="495" y="493" width="66" height="33" as="geometry" />
        </mxCell>
        <mxCell id="_izc5aic09UUB3uyZORW-58" value="&lt;font style=&quot;font-size: 10px;&quot;&gt;Machine 7&lt;/font&gt;" style="text;html=1;strokeColor=none;fillColor=none;align=center;verticalAlign=middle;whiteSpace=wrap;rounded=0;fontSize=10;" parent="1" vertex="1">
          <mxGeometry x="500" y="567" width="60" height="30" as="geometry" />
        </mxCell>
        <mxCell id="_izc5aic09UUB3uyZORW-59" value="1" style="ellipse;whiteSpace=wrap;html=1;aspect=fixed;fontSize=10;strokeColor=#000000;fillColor=#FFFFFF;fontStyle=1" parent="1" vertex="1">
          <mxGeometry x="476" y="499" width="11" height="11" as="geometry" />
        </mxCell>
        <mxCell id="_izc5aic09UUB3uyZORW-60" value="" style="rounded=0;whiteSpace=wrap;html=1;fillColor=#F0F0F0;strokeColor=#36393d;" parent="1" vertex="1">
          <mxGeometry x="306" y="487" width="130" height="82" as="geometry" />
        </mxCell>
        <mxCell id="_izc5aic09UUB3uyZORW-61" value="Nodejs SDK" style="rounded=1;whiteSpace=wrap;html=1;fontSize=11;fillColor=#CCCCCC;strokeColor=#000000;" parent="1" vertex="1">
          <mxGeometry x="312" y="543" width="114" height="20" as="geometry" />
        </mxCell>
        <mxCell id="_izc5aic09UUB3uyZORW-62" value="" style="endArrow=none;dashed=1;html=1;rounded=0;fontColor=#000000;shape=link;sketch=0;width=0;" parent="1" edge="1">
          <mxGeometry width="50" height="50" relative="1" as="geometry">
            <mxPoint x="426.9999999999998" y="537.9999999999997" as="sourcePoint" />
            <mxPoint x="311.9999999999998" y="537.9999999999997" as="targetPoint" />
          </mxGeometry>
        </mxCell>
        <mxCell id="_izc5aic09UUB3uyZORW-63" value="" style="html=1;shadow=0;dashed=0;align=center;verticalAlign=middle;shape=mxgraph.arrows2.twoWayArrow;dy=0.8;dx=1.0;fontColor=#ffffff;strokeColor=#432D57;fillColor=#76608a;direction=south;" parent="1" vertex="1">
          <mxGeometry x="370" y="526" width="6" height="10" as="geometry" />
        </mxCell>
        <mxCell id="_izc5aic09UUB3uyZORW-64" value="&lt;font style=&quot;font-size: 10px;&quot;&gt;Peer1.Client1&lt;/font&gt;" style="shape=document;whiteSpace=wrap;html=1;boundedLbl=1;fillColor=#fad9d5;strokeColor=#ae4132;" parent="1" vertex="1">
          <mxGeometry x="339" y="493" width="66" height="33" as="geometry" />
        </mxCell>
        <mxCell id="_izc5aic09UUB3uyZORW-65" value="&lt;font style=&quot;font-size: 10px;&quot;&gt;Machine 1&lt;/font&gt;" style="text;html=1;strokeColor=none;fillColor=none;align=center;verticalAlign=middle;whiteSpace=wrap;rounded=0;fontSize=10;" parent="1" vertex="1">
          <mxGeometry x="344" y="567" width="60" height="30" as="geometry" />
        </mxCell>
        <mxCell id="_izc5aic09UUB3uyZORW-66" value="1" style="ellipse;whiteSpace=wrap;html=1;aspect=fixed;fontSize=10;strokeColor=#000000;fillColor=#FFFFFF;fontStyle=1" parent="1" vertex="1">
          <mxGeometry x="320" y="499" width="11" height="11" as="geometry" />
        </mxCell>
        <mxCell id="_izc5aic09UUB3uyZORW-67" value="&lt;b&gt;&lt;font style=&quot;font-size: 13px;&quot;&gt;...&lt;/font&gt;&lt;/b&gt;" style="text;html=1;strokeColor=none;fillColor=none;align=center;verticalAlign=middle;whiteSpace=wrap;rounded=0;fontSize=10;" parent="1" vertex="1">
          <mxGeometry x="420" y="562" width="60" height="30" as="geometry" />
        </mxCell>
        <mxCell id="_izc5aic09UUB3uyZORW-69" value="" style="endArrow=classic;html=1;rounded=0;fontSize=10;strokeColor=#0066CC;endSize=4;startSize=4;" parent="1" edge="1">
          <mxGeometry width="50" height="50" relative="1" as="geometry">
            <mxPoint x="562" y="483" as="sourcePoint" />
            <mxPoint x="562" y="464.99999999999966" as="targetPoint" />
          </mxGeometry>
        </mxCell>
        <mxCell id="_izc5aic09UUB3uyZORW-70" value="4" style="ellipse;whiteSpace=wrap;html=1;aspect=fixed;fontSize=10;strokeColor=#000000;fillColor=#FFFFFF;fontStyle=1" parent="1" vertex="1">
          <mxGeometry x="546" y="470" width="11" height="11" as="geometry" />
        </mxCell>
        <mxCell id="_izc5aic09UUB3uyZORW-71" value="" style="endArrow=classic;html=1;rounded=0;fontSize=10;strokeColor=#0066CC;endSize=4;startSize=4;" parent="1" edge="1">
          <mxGeometry width="50" height="50" relative="1" as="geometry">
            <mxPoint x="436.9999999999999" y="483" as="sourcePoint" />
            <mxPoint x="436.9999999999999" y="464.99999999999966" as="targetPoint" />
          </mxGeometry>
        </mxCell>
        <mxCell id="_izc5aic09UUB3uyZORW-72" value="" style="endArrow=classic;html=1;rounded=0;fontSize=10;strokeColor=#0066CC;endSize=4;startSize=4;jumpSize=6;" parent="1" edge="1">
          <mxGeometry width="50" height="50" relative="1" as="geometry">
            <mxPoint x="444.9999999999999" y="464.99999999999966" as="sourcePoint" />
            <mxPoint x="444.9999999999999" y="484" as="targetPoint" />
          </mxGeometry>
        </mxCell>
        <mxCell id="_izc5aic09UUB3uyZORW-73" value="" style="endArrow=classic;html=1;rounded=0;fontSize=10;strokeColor=#0066CC;endSize=4;startSize=4;jumpSize=6;" parent="1" edge="1">
          <mxGeometry width="50" height="50" relative="1" as="geometry">
            <mxPoint x="470.0000000000001" y="464.99999999999966" as="sourcePoint" />
            <mxPoint x="470.0000000000001" y="484" as="targetPoint" />
          </mxGeometry>
        </mxCell>
        <mxCell id="_izc5aic09UUB3uyZORW-74" value="2" style="ellipse;whiteSpace=wrap;html=1;aspect=fixed;fontSize=10;strokeColor=#000000;fillColor=#FFFFFF;fontStyle=1" parent="1" vertex="1">
          <mxGeometry x="421" y="470" width="11" height="11" as="geometry" />
        </mxCell>
        <mxCell id="_izc5aic09UUB3uyZORW-75" value="3" style="ellipse;whiteSpace=wrap;html=1;aspect=fixed;fontSize=10;strokeColor=#000000;fillColor=#FFFFFF;fontStyle=1" parent="1" vertex="1">
          <mxGeometry x="449" y="470" width="11" height="11" as="geometry" />
        </mxCell>
        <mxCell id="_izc5aic09UUB3uyZORW-76" value="6" style="ellipse;whiteSpace=wrap;html=1;aspect=fixed;fontSize=10;strokeColor=#000000;fillColor=#FFFFFF;fontStyle=1" parent="1" vertex="1">
          <mxGeometry x="475" y="470" width="11" height="11" as="geometry" />
        </mxCell>
        <mxCell id="ahnX-Xyx6NTxRVOsWMf1-1" value="" style="rounded=0;whiteSpace=wrap;html=1;shadow=0;labelBackgroundColor=none;fontSize=10;fontColor=#000000;strokeColor=#000000;fillColor=#FFFFFF;" parent="1" vertex="1">
          <mxGeometry x="440" y="342" width="46" height="27" as="geometry" />
        </mxCell>
        <mxCell id="ahnX-Xyx6NTxRVOsWMf1-2" value="" style="rounded=0;whiteSpace=wrap;html=1;shadow=0;fontSize=10;strokeColor=#FFFFFF;fillColor=#fad9d5;imageWidth=21;imageHeight=21;absoluteArcSize=1;" parent="1" vertex="1">
          <mxGeometry x="441" y="343" width="15" height="24" as="geometry" />
        </mxCell>
        <mxCell id="ahnX-Xyx6NTxRVOsWMf1-3" value="" style="rounded=0;whiteSpace=wrap;html=1;shadow=0;fontSize=10;strokeColor=#FFFFFF;fillColor=#CCCCCC;imageWidth=21;imageHeight=21;absoluteArcSize=1;" parent="1" vertex="1">
          <mxGeometry x="455" y="343" width="15" height="24" as="geometry" />
        </mxCell>
        <mxCell id="ahnX-Xyx6NTxRVOsWMf1-4" value="" style="rounded=0;whiteSpace=wrap;html=1;shadow=0;fontSize=10;fontColor=#000000;strokeColor=#FFFFFF;fillColor=#CCCCCC;imageWidth=21;imageHeight=21;absoluteArcSize=1;" parent="1" vertex="1">
          <mxGeometry x="470" y="343" width="15" height="24" as="geometry" />
        </mxCell>
        <mxCell id="ahnX-Xyx6NTxRVOsWMf1-5" value="RAM" style="text;html=1;strokeColor=none;fillColor=none;align=center;verticalAlign=middle;whiteSpace=wrap;rounded=0;fontSize=10;" parent="1" vertex="1">
          <mxGeometry x="436" y="343" width="54" height="24" as="geometry" />
        </mxCell>
        <mxCell id="ahnX-Xyx6NTxRVOsWMf1-6" value="" style="rounded=0;whiteSpace=wrap;html=1;fillColor=#D5E8D4;" parent="1" vertex="1">
          <mxGeometry x="501" y="337" width="213" height="116" as="geometry" />
        </mxCell>
        <mxCell id="ahnX-Xyx6NTxRVOsWMf1-7" value="cgroups Controller" style="rounded=1;whiteSpace=wrap;html=1;fillColor=#CCCCCC;strokeColor=#000000;fontSize=11;" parent="1" vertex="1">
          <mxGeometry x="511" y="378" width="194" height="20" as="geometry" />
        </mxCell>
        <mxCell id="ahnX-Xyx6NTxRVOsWMf1-8" value="" style="endArrow=none;dashed=1;html=1;rounded=0;fontColor=#000000;shape=link;sketch=0;width=0;endSize=29;" parent="1" edge="1">
          <mxGeometry width="50" height="50" relative="1" as="geometry">
            <mxPoint x="709" y="401" as="sourcePoint" />
            <mxPoint x="507" y="401" as="targetPoint" />
          </mxGeometry>
        </mxCell>
        <mxCell id="ahnX-Xyx6NTxRVOsWMf1-9" value="" style="html=1;shadow=0;dashed=0;align=center;verticalAlign=middle;shape=mxgraph.arrows2.twoWayArrow;dy=0.8;dx=1.0;fontColor=#ffffff;strokeColor=#432D57;fillColor=#76608a;direction=south;" parent="1" vertex="1">
          <mxGeometry x="606" y="404" width="5" height="7" as="geometry" />
        </mxCell>
        <mxCell id="ahnX-Xyx6NTxRVOsWMf1-10" value="" style="rounded=0;whiteSpace=wrap;html=1;shadow=0;labelBackgroundColor=none;fontSize=10;fontColor=#000000;strokeColor=#000000;fillColor=#FFFFFF;" parent="1" vertex="1">
          <mxGeometry x="509" y="342" width="46" height="27" as="geometry" />
        </mxCell>
        <mxCell id="ahnX-Xyx6NTxRVOsWMf1-11" value="" style="rounded=0;whiteSpace=wrap;html=1;shadow=0;fontSize=10;strokeColor=#FFFFFF;fillColor=#CCE5FF;imageWidth=21;imageHeight=21;absoluteArcSize=1;" parent="1" vertex="1">
          <mxGeometry x="510" y="343" width="15" height="24" as="geometry" />
        </mxCell>
        <mxCell id="ahnX-Xyx6NTxRVOsWMf1-12" value="" style="rounded=0;whiteSpace=wrap;html=1;shadow=0;fontSize=10;strokeColor=#FFFFFF;fillColor=#CCCCCC;imageWidth=21;imageHeight=21;absoluteArcSize=1;" parent="1" vertex="1">
          <mxGeometry x="524" y="343" width="15" height="24" as="geometry" />
        </mxCell>
        <mxCell id="ahnX-Xyx6NTxRVOsWMf1-13" value="" style="rounded=0;whiteSpace=wrap;html=1;shadow=0;fontSize=10;fontColor=#000000;strokeColor=#FFFFFF;fillColor=#CCCCCC;imageWidth=21;imageHeight=21;absoluteArcSize=1;" parent="1" vertex="1">
          <mxGeometry x="539" y="343" width="15" height="24" as="geometry" />
        </mxCell>
        <mxCell id="ahnX-Xyx6NTxRVOsWMf1-14" value="CPU" style="text;html=1;strokeColor=none;fillColor=none;align=center;verticalAlign=middle;whiteSpace=wrap;rounded=0;fontSize=10;" parent="1" vertex="1">
          <mxGeometry x="505" y="343" width="54" height="24" as="geometry" />
        </mxCell>
        <mxCell id="ahnX-Xyx6NTxRVOsWMf1-15" value="" style="rounded=0;whiteSpace=wrap;html=1;shadow=0;labelBackgroundColor=none;fontSize=10;fontColor=#000000;strokeColor=#000000;fillColor=#FFFFFF;" parent="1" vertex="1">
          <mxGeometry x="560" y="342" width="46" height="27" as="geometry" />
        </mxCell>
        <mxCell id="ahnX-Xyx6NTxRVOsWMf1-16" value="" style="rounded=0;whiteSpace=wrap;html=1;shadow=0;fontSize=10;strokeColor=#FFFFFF;fillColor=#CCE5FF;imageWidth=21;imageHeight=21;absoluteArcSize=1;" parent="1" vertex="1">
          <mxGeometry x="561" y="343" width="15" height="24" as="geometry" />
        </mxCell>
        <mxCell id="ahnX-Xyx6NTxRVOsWMf1-17" value="" style="rounded=0;whiteSpace=wrap;html=1;shadow=0;fontSize=10;strokeColor=#FFFFFF;fillColor=#CCCCCC;imageWidth=21;imageHeight=21;absoluteArcSize=1;" parent="1" vertex="1">
          <mxGeometry x="575" y="343" width="15" height="24" as="geometry" />
        </mxCell>
        <mxCell id="ahnX-Xyx6NTxRVOsWMf1-18" value="" style="rounded=0;whiteSpace=wrap;html=1;shadow=0;fontSize=10;fontColor=#000000;strokeColor=#FFFFFF;fillColor=#CCCCCC;imageWidth=21;imageHeight=21;absoluteArcSize=1;" parent="1" vertex="1">
          <mxGeometry x="590" y="343" width="15" height="24" as="geometry" />
        </mxCell>
        <mxCell id="ahnX-Xyx6NTxRVOsWMf1-19" value="Disk" style="text;html=1;strokeColor=none;fillColor=none;align=center;verticalAlign=middle;whiteSpace=wrap;rounded=0;fontSize=10;" parent="1" vertex="1">
          <mxGeometry x="556" y="343" width="54" height="24" as="geometry" />
        </mxCell>
        <mxCell id="ahnX-Xyx6NTxRVOsWMf1-20" value="" style="rounded=0;whiteSpace=wrap;html=1;shadow=0;labelBackgroundColor=none;fontSize=10;fontColor=#000000;strokeColor=#000000;fillColor=#FFFFFF;" parent="1" vertex="1">
          <mxGeometry x="611" y="342" width="46" height="27" as="geometry" />
        </mxCell>
        <mxCell id="ahnX-Xyx6NTxRVOsWMf1-21" value="" style="rounded=0;whiteSpace=wrap;html=1;shadow=0;fontSize=10;strokeColor=#FFFFFF;fillColor=#CCE5FF;imageWidth=21;imageHeight=21;absoluteArcSize=1;" parent="1" vertex="1">
          <mxGeometry x="612" y="343" width="15" height="24" as="geometry" />
        </mxCell>
        <mxCell id="ahnX-Xyx6NTxRVOsWMf1-22" value="" style="rounded=0;whiteSpace=wrap;html=1;shadow=0;fontSize=10;strokeColor=#FFFFFF;fillColor=#CCE5FF;imageWidth=21;imageHeight=21;absoluteArcSize=1;" parent="1" vertex="1">
          <mxGeometry x="626" y="343" width="15" height="24" as="geometry" />
        </mxCell>
        <mxCell id="ahnX-Xyx6NTxRVOsWMf1-23" value="" style="rounded=0;whiteSpace=wrap;html=1;shadow=0;fontSize=10;fontColor=#000000;strokeColor=#FFFFFF;fillColor=#CCCCCC;imageWidth=21;imageHeight=21;absoluteArcSize=1;" parent="1" vertex="1">
          <mxGeometry x="641" y="343" width="15" height="24" as="geometry" />
        </mxCell>
        <mxCell id="ahnX-Xyx6NTxRVOsWMf1-24" value="Network" style="text;html=1;strokeColor=none;fillColor=none;align=center;verticalAlign=middle;whiteSpace=wrap;rounded=0;fontSize=10;" parent="1" vertex="1">
          <mxGeometry x="607" y="343" width="54" height="24" as="geometry" />
        </mxCell>
        <mxCell id="ahnX-Xyx6NTxRVOsWMf1-25" value="&lt;font style=&quot;font-size: 10px;&quot;&gt;Orderer1&lt;br style=&quot;&quot;&gt;Container&lt;/font&gt;" style="shape=cube;whiteSpace=wrap;html=1;boundedLbl=1;backgroundOutline=1;darkOpacity=0.05;darkOpacity2=0.1;shadow=0;size=3;fontSize=11;fillColor=#cce5ff;strokeColor=#36393d;" parent="1" vertex="1">
          <mxGeometry x="573" y="414" width="70" height="34" as="geometry" />
        </mxCell>
        <mxCell id="ahnX-Xyx6NTxRVOsWMf1-26" value="" style="rounded=0;whiteSpace=wrap;html=1;shadow=0;labelBackgroundColor=none;fontSize=10;fontColor=#000000;strokeColor=#000000;fillColor=#FFFFFF;" parent="1" vertex="1">
          <mxGeometry x="662" y="342" width="46" height="27" as="geometry" />
        </mxCell>
        <mxCell id="ahnX-Xyx6NTxRVOsWMf1-27" value="" style="rounded=0;whiteSpace=wrap;html=1;shadow=0;fontSize=10;strokeColor=#FFFFFF;fillColor=#CCE5FF;imageWidth=21;imageHeight=21;absoluteArcSize=1;" parent="1" vertex="1">
          <mxGeometry x="663" y="343" width="15" height="24" as="geometry" />
        </mxCell>
        <mxCell id="ahnX-Xyx6NTxRVOsWMf1-28" value="" style="rounded=0;whiteSpace=wrap;html=1;shadow=0;fontSize=10;strokeColor=#FFFFFF;fillColor=#CCCCCC;imageWidth=21;imageHeight=21;absoluteArcSize=1;" parent="1" vertex="1">
          <mxGeometry x="677" y="343" width="15" height="24" as="geometry" />
        </mxCell>
        <mxCell id="ahnX-Xyx6NTxRVOsWMf1-29" value="" style="rounded=0;whiteSpace=wrap;html=1;shadow=0;fontSize=10;fontColor=#000000;strokeColor=#FFFFFF;fillColor=#CCCCCC;imageWidth=21;imageHeight=21;absoluteArcSize=1;" parent="1" vertex="1">
          <mxGeometry x="692" y="343" width="15" height="24" as="geometry" />
        </mxCell>
        <mxCell id="ahnX-Xyx6NTxRVOsWMf1-30" value="RAM" style="text;html=1;strokeColor=none;fillColor=none;align=center;verticalAlign=middle;whiteSpace=wrap;rounded=0;fontSize=10;" parent="1" vertex="1">
          <mxGeometry x="658" y="343" width="54" height="24" as="geometry" />
        </mxCell>
        <mxCell id="_izc5aic09UUB3uyZORW-50" value="" style="endArrow=classic;html=1;rounded=0;fontSize=10;strokeColor=#0066CC;endSize=4;startSize=4;jumpSize=6;" parent="1" edge="1">
          <mxGeometry width="50" height="50" relative="1" as="geometry">
            <mxPoint x="569" y="437" as="sourcePoint" />
            <mxPoint x="424" y="436.99999999999955" as="targetPoint" />
          </mxGeometry>
        </mxCell>
        <mxCell id="_izc5aic09UUB3uyZORW-51" value="5" style="ellipse;whiteSpace=wrap;html=1;aspect=fixed;fontSize=10;strokeColor=#000000;fillColor=#FFFFFF;fontStyle=1" parent="1" vertex="1">
          <mxGeometry x="523" y="423" width="11" height="11" as="geometry" />
        </mxCell>
        <mxCell id="E17N7Q5KL3azJN7GOX-G-2" value="&lt;span style=&quot;font-size: 10px;&quot;&gt;&lt;i&gt;Fabric gateway&lt;/i&gt;&lt;/span&gt;" style="text;html=1;strokeColor=none;fillColor=none;align=center;verticalAlign=middle;whiteSpace=wrap;rounded=0;fontSize=8;" parent="1" vertex="1">
          <mxGeometry x="328" y="459" width="89" height="30" as="geometry" />
        </mxCell>
        <mxCell id="E17N7Q5KL3azJN7GOX-G-3" value="&lt;span style=&quot;font-size: 10px;&quot;&gt;&lt;i&gt;Fabric gateway&lt;/i&gt;&lt;/span&gt;" style="text;html=1;strokeColor=none;fillColor=none;align=center;verticalAlign=middle;whiteSpace=wrap;rounded=0;fontSize=8;" parent="1" vertex="1">
          <mxGeometry x="567" y="459" width="89" height="30" as="geometry" />
        </mxCell>
        <mxCell id="8RkwSL7RH_2S7QH65K8Y-1" value="&lt;font style=&quot;font-size: 10px;&quot;&gt;Hyperledger&amp;nbsp;Fabric&lt;br&gt;Client Side&lt;br&gt;&lt;/font&gt;" style="text;html=1;strokeColor=none;fillColor=none;align=center;verticalAlign=middle;whiteSpace=wrap;rounded=0;fontSize=8;" parent="1" vertex="1">
          <mxGeometry x="379" y="610" width="136" height="30" as="geometry" />
        </mxCell>
        <mxCell id="Rb0WIgnKR_dMNXij6iVX-1" value="" style="shape=curlyBracket;whiteSpace=wrap;html=1;rounded=1;labelPosition=left;verticalLabelPosition=middle;align=right;verticalAlign=middle;rotation=90;" parent="1" vertex="1">
          <mxGeometry x="484" y="191" width="20" height="216" as="geometry" />
        </mxCell>
        <mxCell id="Rb0WIgnKR_dMNXij6iVX-2" value="" style="shape=curlyBracket;whiteSpace=wrap;html=1;rounded=1;labelPosition=left;verticalLabelPosition=middle;align=right;verticalAlign=middle;rotation=90;flipV=0;flipH=1;" parent="1" vertex="1">
          <mxGeometry x="440.25" y="518.75" width="20" height="164.5" as="geometry" />
        </mxCell>
        <mxCell id="Rb0WIgnKR_dMNXij6iVX-3" value="&lt;b&gt;&lt;font style=&quot;font-size: 13px;&quot;&gt;...&lt;/font&gt;&lt;/b&gt;" style="text;html=1;strokeColor=none;fillColor=none;align=center;verticalAlign=middle;whiteSpace=wrap;rounded=0;fontSize=10;" parent="1" vertex="1">
          <mxGeometry x="467" y="301" width="60" height="30" as="geometry" />
        </mxCell>
      </root>
    </mxGraphModel>
  </diagram>
</mxfile>
